PathFileType	4	(X/Y/Z)	E:\3-PhD\Data\MocapData\ElaboratedData\009\pre\dynamicElaborations\RunA2\RunA2.trc
DataRate	CameraRate	NumFrames	NumMarkers	Units	OrigDataRate	DataStartFrame
200	200	4	54	mm	200	289
Frame#	Time	FHD			LBHD			RBHD			C7			T10			CLAV			LSHO			LUUPA			LMUPA			LDUPA			LLEP			LMEP			LRAD			LUL			LRFIN			RSHO			RUPA1			RMUPA			RDUPA			RLEP			RMEP			RRAD			RUL			RUFIN			RASI			USACR			LSACR			RSACR			LTHI1			LTHI2			LTHI3			LTHI4			LTIB1			LTIB2			LTIB3			LTIB4			LLMAL			LHEE			LMT1			LMT2			RTHI			RTHI2			RTHI3			RTHI4			RLFC			RTIB1			RTIB2			RTIB3			RTIB4			RLMAL			RHEE			RMT1			RMT2			RMT5		
		X1	Y1	Z1	X2	Y2	Z2	X3	Y3	Z3	X4	Y4	Z4	X5	Y5	Z5	X6	Y6	Z6	X7	Y7	Z7	X8	Y8	Z8	X9	Y9	Z9	X10	Y10	Z10	X11	Y11	Z11	X12	Y12	Z12	X13	Y13	Z13	X14	Y14	Z14	X15	Y15	Z15	X16	Y16	Z16	X17	Y17	Z17	X18	Y18	Z18	X19	Y19	Z19	X20	Y20	Z20	X21	Y21	Z21	X22	Y22	Z22	X23	Y23	Z23	X24	Y24	Z24	X25	Y25	Z25	X26	Y26	Z26	X27	Y27	Z27	X28	Y28	Z28	X29	Y29	Z29	X30	Y30	Z30	X31	Y31	Z31	X32	Y32	Z32	X33	Y33	Z33	X34	Y34	Z34	X35	Y35	Z35	X36	Y36	Z36	X37	Y37	Z37	X38	Y38	Z38	X39	Y39	Z39	X40	Y40	Z40	X41	Y41	Z41	X42	Y42	Z42	X43	Y43	Z43	X44	Y44	Z44	X45	Y45	Z45	X46	Y46	Z46	X47	Y47	Z47	X48	Y48	Z48	X49	Y49	Z49	X50	Y50	Z50	X51	Y51	Z51	X52	Y52	Z52	X53	Y53	Z53	X54	Y54	Z54	

318	1.585000	-83.620408	1489.748316	-211.246396	-283.954176	1490.076147	-190.925874	-184.447651	1479.727660	-112.387550	-310.654268	1365.606465	-130.368501	-477.035299	1069.041018	-23.082775	-228.841938	1228.429763	-184.851940	-323.251510	1278.611811	-306.113290	-513.611983	1230.164305	-325.440772	-519.237604	1180.723010	-324.283444	-576.299518	1202.612295	-319.643908	-687.649679	1157.273274	-291.268043	-684.249599	1166.781444	-217.433665	-689.992446	902.258714	-222.312236	-764.610350	909.461823	-225.597733	-704.982453	820.984287	-236.709955	-166.844675	1319.663803	-36.854032	-150.218491	1186.341620	79.793660	-126.704829	1151.199788	60.860999	-140.283972	1128.202834	115.138214	-124.926041	996.245068	148.673332	-186.277103	963.942145	115.203955	-37.378795	1066.349055	-84.502253	6.495286	1015.790210	-75.587555	25.641523	1108.874339	-106.172094	-303.907205	894.764924	80.313057	-506.226517	981.694617	7.105277	-522.047330	943.686748	-4.760531	-494.843615	961.431959	45.143506	-385.778059	648.544996	-198.811675	-315.620103	627.928574	-243.252059	-297.566770	668.780459	-261.139617	-275.488302	582.378212	-232.438044	-27.831363	425.147630	-212.310872	-68.645829	356.891998	-173.356192	-32.593149	370.897144	-193.074202	28.773740	332.973131	-144.512500	62.232761	204.898504	-46.303904	49.547043	205.418393	52.460828	229.771179	206.865897	-79.445404	205.800757	179.484666	-108.460063	-397.702389	715.058443	254.363022	-386.907113	651.671984	267.548654	-362.486216	634.811970	254.283690	-449.146584	598.479898	297.447174	-483.380309	497.418750	332.415163	-571.352901	299.665283	400.231858	-650.678288	301.752009	474.966125	-622.794943	266.486081	459.920263	-653.769544	217.972286	455.495713	-739.204122	196.139539	533.435677	-831.133417	192.058308	523.566086	-669.897379	51.808898	481.992118	-657.310397	58.131207	520.176280	-687.675357	63.484502	581.886944	
319	1.590000	-59.958787	1491.619919	-224.181721	-260.249039	1492.161300	-204.440301	-161.023335	1481.481903	-125.621091	-286.117397	1367.221192	-142.597115	-449.453235	1070.957593	-30.683270	-204.872974	1230.550733	-197.659785	-300.662853	1279.712495	-317.943009	-491.116605	1233.325868	-333.425712	-497.236448	1184.028380	-331.911387	-553.822825	1206.665692	-325.414268	-665.067855	1162.249023	-294.325489	-659.172553	1170.612361	-220.654280	-660.831998	905.944532	-229.372755	-735.707922	911.775299	-229.744106	-674.925090	824.471481	-245.165315	-140.866297	1322.478751	-51.203480	-122.704002	1189.222889	65.198747	-100.161250	1153.759760	45.462513	-112.806446	1130.960799	100.174946	-98.385139	999.128726	134.430065	-160.781575	967.238494	101.807619	-16.595827	1070.712255	-101.023438	27.662509	1020.614264	-93.038961	45.144523	1113.874909	-124.111828	-276.192384	895.205920	70.514069	-478.041181	984.447437	-0.874715	-494.350639	946.509131	-12.268629	-466.178182	964.261217	37.203029	-359.456581	647.270245	-205.395735	-289.070817	624.934871	-248.632161	-270.254886	665.314770	-266.710946	-249.644096	579.033573	-236.499298	-0.658591	422.613975	-218.387605	-39.003828	353.355402	-178.569469	-3.762766	368.128453	-199.448870	59.879122	330.757862	-153.191261	98.785971	202.269844	-57.178061	88.505007	202.785787	41.559136	266.268986	205.799419	-93.271990	242.282813	177.927017	-121.765583	-372.528549	717.652030	245.299224	-363.260325	653.896661	258.397526	-339.345693	636.462850	245.005480	-426.796781	602.361383	288.721684	-464.041416	502.340100	323.600346	-555.865349	306.345271	392.882425	-635.851762	310.057800	466.922901	-608.130300	274.356564	452.515964	-639.354632	225.929214	448.296772	-726.109844	206.227299	525.461613	-816.880604	206.790669	512.414096	-666.045229	53.754728	479.242676	-653.802838	60.903378	517.467694	-684.898146	70.534479	577.748596	
320	1.595000	-36.334891	1493.405970	-237.268278	-236.562292	1493.896296	-217.931079	-137.550929	1483.101400	-138.892282	-261.453920	1368.758675	-154.941410	-422.173751	1073.007607	-38.693350	-180.817861	1232.462304	-210.324607	-277.743910	1280.483242	-329.802280	-468.280567	1235.856394	-341.625044	-474.800234	1186.700972	-339.625841	-530.893099	1210.004102	-331.305156	-641.850108	1166.435776	-297.663577	-633.547454	1173.667210	-224.211494	-631.015061	908.958306	-236.828098	-706.028963	913.265172	-234.513082	-644.112456	827.307226	-254.086764	-114.932743	1325.027233	-65.338009	-95.569425	1192.001584	51.027506	-74.053201	1156.147483	30.666177	-85.894565	1133.682445	85.771700	-72.670426	1002.073925	121.195313	-136.106551	970.647703	89.471648	4.135586	1073.618657	-116.626555	48.543964	1023.919439	-109.062192	64.773869	1117.068788	-141.031877	-248.703846	895.906970	60.338823	-450.175688	987.352467	-9.407370	-466.953922	949.483835	-20.336579	-438.033370	967.279297	28.770514	-333.072582	645.702778	-212.066882	-262.465572	621.667659	-254.080668	-242.768767	661.547067	-272.254624	-223.796930	575.395682	-240.633533	25.654440	419.531150	-223.893999	-10.628214	349.577412	-183.235588	23.886893	364.900131	-205.170896	89.422956	327.939237	-161.044485	132.830445	199.176824	-67.055694	124.854804	199.832766	31.641331	300.159470	203.653122	-106.101044	276.047689	175.360504	-134.045735	-346.818560	720.089684	235.906664	-338.743561	656.087241	248.956907	-315.225309	638.224714	235.486190	-403.173324	605.852355	279.676558	-442.766886	506.717039	314.428251	-538.739039	312.772860	385.057531	-619.574626	318.325940	458.137872	-592.070174	282.147227	444.467920	-623.641916	233.859447	440.316511	-711.816594	216.604601	516.462685	-801.099488	221.820082	499.805175	-661.185781	56.897937	475.660080	-649.511981	64.718431	513.991323	-681.472424	78.718866	572.504306	
321	1.600000	-12.728853	1495.088980	-250.489499	-212.870831	1495.263627	-231.356069	-113.991824	1484.566363	-152.176430	-236.656554	1370.192183	-167.384380	-395.224643	1075.145568	-47.125916	-156.649726	1234.141813	-222.862241	-254.515613	1280.940286	-341.690638	-445.139895	1237.692330	-350.040102	-451.939660	1188.673000	-347.459682	-507.544191	1212.528678	-337.382277	-618.030653	1169.709322	-301.353895	-607.440511	1175.864217	-228.160542	-600.549262	911.220117	-244.693807	-675.591977	913.854069	-239.953736	-612.536351	829.419021	-263.451073	-89.043102	1327.273866	-79.233463	-68.859472	1194.656249	37.347018	-48.387032	1158.355573	16.558791	-59.566700	1136.353107	72.012307	-47.760606	1005.076938	109.011812	-112.208285	974.159284	78.219041	24.904825	1074.981579	-131.264356	69.281343	1025.611044	-123.588958	84.694735	1118.340547	-156.913596	-221.456800	896.867365	49.842662	-422.675228	990.372673	-18.442191	-439.880882	952.559842	-28.925218	-410.434120	970.445806	19.878201	-306.672594	643.868120	-218.773346	-235.869215	618.184073	-259.593146	-215.189145	657.538178	-277.772770	-197.990519	571.535924	-244.862398	51.132728	415.962992	-228.843436	16.460643	345.591478	-187.399571	50.361684	361.250200	-210.259365	117.400603	324.517203	-168.034440	164.279439	195.543655	-75.813223	158.415320	196.490975	22.830974	331.401849	200.300516	-117.643797	307.071459	171.659506	-145.026546	-320.595164	722.263756	226.233125	-313.359482	658.121666	239.260769	-290.122181	639.982626	225.759851	-378.273491	608.803827	270.372145	-419.549483	510.364864	304.974452	-520.027112	318.844518	376.801536	-601.863000	326.517814	448.646416	-574.666326	289.803229	435.814150	-606.720995	241.740732	431.599022	-696.389443	227.299733	506.484975	-783.857011	237.083243	485.911480	-655.192881	61.388192	471.129289	-644.286615	69.742447	509.621329	-677.185570	88.112223	566.061247	
